<?xml version="1.0" standalone="no"?><!DOCTYPE svg PUBLIC "-//W3C//DTD SVG 1.1//EN" "http://www.w3.org/Graphics/SVG/1.1/DTD/svg11.dtd"><svg t="1718686158763" class="icon" viewBox="0 0 1024 1024" version="1.1" xmlns="http://www.w3.org/2000/svg" p-id="14722" xmlns:xlink="http://www.w3.org/1999/xlink" width="200" height="200"><path d="M512 1024C229.226667 1024 0 794.773333 0 512 0 229.226667 229.226667 0 512 0 794.773333 0 1024 229.226667 1024 512 1024 794.773333 794.773333 1024 512 1024ZM693.333333 458.666667C689.024 438.634667 682.666667 426.666667 682.666667 426.666667 682.666667 426.666667 682.944 397.333333 650.666667 330.666667 618.389333 264 522.666667 256 522.666667 256L512 256C512 256 416.277333 264 384 330.666667 351.722667 397.333333 352 426.666667 352 426.666667 352 426.666667 345.642667 438.634667 341.333333 458.666667 337.024 478.698667 341.333333 490.666667 341.333333 490.666667 341.333333 490.666667 286.656 546.421333 288 586.666667 289.344 626.912 299.221333 652.544 320 629.333333 340.778667 606.122667 341.333333 608 341.333333 608 341.333333 608 340.970667 625.333333 352 640 363.029333 654.666667 373.333333 661.333333 373.333333 661.333333 373.333333 661.333333 317.386667 689.034667 330.666667 725.333333 343.946667 761.632 384.874667 768.288 416 768 447.125333 767.712 512 746.666667 512 746.666667L522.666667 746.666667C522.666667 746.666667 587.541333 767.712 618.666667 768 649.792 768.288 690.72 761.632 704 725.333333 717.28 689.034667 661.333333 661.333333 661.333333 661.333333 661.333333 661.333333 671.637333 654.666667 682.666667 640 693.696 625.333333 693.333333 608 693.333333 608 693.333333 608 693.888 606.122667 714.666667 629.333333 735.445333 652.544 745.322667 626.912 746.666667 586.666667 748.010667 546.421333 693.333333 490.666667 693.333333 490.666667 693.333333 490.666667 697.642667 478.698667 693.333333 458.666667Z" fill="#272636" p-id="14723"></path></svg>