<?xml version="1.0" standalone="no"?><!DOCTYPE svg PUBLIC "-//W3C//DTD SVG 1.1//EN" "http://www.w3.org/Graphics/SVG/1.1/DTD/svg11.dtd"><svg t="1718265453107" class="icon" viewBox="0 0 1024 1024" version="1.1" xmlns="http://www.w3.org/2000/svg" p-id="8909" xmlns:xlink="http://www.w3.org/1999/xlink" width="200" height="200"><path d="M938.666667 426.666667C938.666667 191.146667 747.52 0 512 0S85.333333 191.146667 85.333333 426.666667c0 139.946667 64.853333 259.413333 167.253334 337.92L512 1024l259.413333-259.413333c102.4-78.506667 167.253333-197.973333 167.253334-337.92z" fill="#EB0004" p-id="8910"></path><path d="M512 426.666667m-392.533333 0a392.533333 392.533333 0 1 0 785.066666 0 392.533333 392.533333 0 1 0-785.066666 0Z" fill="#FFFFFF" p-id="8911"></path><path d="M419.84 314.026667h54.613333s3.413333-3.413333 3.413334-6.826667v-23.893333c0-3.413333-3.413333-6.826667-6.826667-6.826667h-51.2c-3.413333 0-6.826667 3.413333-6.826667 6.826667V307.2c0 3.413333 3.413333 6.826667 6.826667 6.826667zM764.586667 238.933333l-64.853334-61.44c-3.413333-3.413333-6.826667-3.413333-10.24 0l-6.826666 6.826667c-3.413333 3.413333-3.413333 6.826667-3.413334 10.24l20.48 34.133333c3.413333 3.413333 3.413333 6.826667-3.413333 10.24-6.826667 6.826667-10.24 13.653333-10.24 20.48 0 17.066667 13.653333 27.306667 27.306667 30.72 3.413333 0 6.826667 3.413333 6.826666 6.826667V580.266667c0 13.653333-13.653333 23.893333-27.306666 23.893333s-27.306667-10.24-27.306667-23.893333v-191.146667c0-37.546667-34.133333-68.266667-71.68-68.266667-3.413333 0-6.826667-3.413333-6.826667-6.826666V221.866667c0-37.546667-34.133333-68.266667-71.68-68.266667h-160.426666c-37.546667 0-71.68 30.72-71.68 68.266667v419.84c0 3.413333-3.413333 6.826667-6.826667 6.826666h-13.653333c-3.413333 0-6.826667 3.413333-6.826667 6.826667v20.48c0 3.413333 3.413333 6.826667 6.826667 6.826667h361.813333c3.413333 0 6.826667-3.413333 6.826667-6.826667v-23.893333c0-3.413333-3.413333-6.826667-6.826667-6.826667h-20.48c-3.413333 0-6.826667-3.413333-6.826667-6.826667v-279.893333c0-3.413333 3.413333-6.826667 6.826667-6.826667 17.066667 0 34.133333 13.653333 34.133333 30.72v191.146667c0 34.133333 30.72 61.44 64.853334 61.44 37.546667 0 64.853333-27.306667 64.853333-61.44V242.346667c0-3.413333 0-3.413333-3.413333-3.413334z m-392.533334 10.24c0-3.413333 3.413333-6.826667 6.826667-6.826666H512c3.413333 0 6.826667 3.413333 6.826667 6.826666v98.986667c0 3.413333-3.413333 6.826667-6.826667 6.826667h-133.12c-3.413333 0-6.826667-3.413333-6.826667-6.826667V249.173333z m150.186667 348.16c0 3.413333-3.413333 6.826667-6.826667 6.826667h-143.36c-3.413333 0-6.826667-3.413333-6.826666-6.826667v-23.893333c0-3.413333 3.413333-6.826667 6.826666-6.826667h143.36c3.413333 0 6.826667 3.413333 6.826667 6.826667v23.893333z" fill="#EB0004" p-id="8912"></path></svg>