<?xml version="1.0" standalone="no"?><!DOCTYPE svg PUBLIC "-//W3C//DTD SVG 1.1//EN" "http://www.w3.org/Graphics/SVG/1.1/DTD/svg11.dtd"><svg t="1716898143892" class="icon" viewBox="0 0 1024 1024" version="1.1" xmlns="http://www.w3.org/2000/svg" p-id="3438" xmlns:xlink="http://www.w3.org/1999/xlink" width="200" height="200"><path d="M845.7728 386.8672a330.4448 330.4448 0 1 0-660.8384 0c0 142.9504 156.7232 308.1216 294.656 427.4688a53.4016 53.4016 0 0 0 70.912-1.1264c168.7552-153.6 295.2704-305.8688 295.2704-426.3424z" fill="#FC6564" p-id="3439"></path><path d="M515.3792 548.864a167.2704 167.2704 0 1 1 167.2192-167.2192 167.424 167.424 0 0 1-167.2192 167.2192z m0-230.8096a63.5904 63.5904 0 1 0 63.5392 63.5904 63.6416 63.6416 0 0 0-63.5392-63.5904z" fill="#F8DEDE" p-id="3440"></path><path d="M515.3792 964.5568c-74.4448 0-445.7984-7.2192-445.7984-149.6576 0-62.0032 66.56-104.3968 202.8032-129.5872a50.0224 50.0224 0 0 1 18.176 98.4064c-55.7056 10.24-88.9344 22.3232-106.9568 31.3344 42.9568 21.2992 157.5424 49.4592 331.776 49.4592s288.8192-28.16 331.776-49.4592c-18.8928-9.4208-54.4768-22.2208-114.8928-32.768a50.0736 50.0736 0 1 1 17.2544-98.6112c142.3872 24.9344 211.6096 67.84 211.6096 131.2256 0 142.5408-371.3536 149.6576-445.7472 149.6576z m348.8256-138.24z" fill="#FC6564" p-id="3441"></path></svg>