<?xml version="1.0" standalone="no"?><!DOCTYPE svg PUBLIC "-//W3C//DTD SVG 1.1//EN" "http://www.w3.org/Graphics/SVG/1.1/DTD/svg11.dtd"><svg t="1718350673047" class="icon" viewBox="0 0 1024 1024" version="1.1" xmlns="http://www.w3.org/2000/svg" p-id="3642" xmlns:xlink="http://www.w3.org/1999/xlink" width="200" height="200"><path d="M512 960c48.64 0 87.04 15.36 87.04 33.28S560.64 1024 512 1024c-48.64 0-87.04-15.36-87.04-33.28S463.36 960 512 960z" fill="#F4F4F4" p-id="3643"></path><path d="M512 25.6C294.4 28.16 117.76 204.8 117.76 419.84c0 209.92 138.24 327.68 192 381.44S512 998.4 512 998.4s133.12-130.56 199.68-194.56 192-171.52 192-381.44C903.68 204.8 721.92 28.16 512 25.6z" fill="#EF8E00" p-id="3644"></path><path d="M512 97.28c176.64 0 322.56 143.36 322.56 322.56S688.64 739.84 512 739.84c-176.64 0-322.56-143.36-322.56-322.56S335.36 97.28 512 97.28z" fill="#FFFFFF" p-id="3645"></path><path d="M673.28 355.84c-12.8 0-25.6 10.24-25.6 25.6l0 74.24L376.32 455.68 376.32 281.6c0-12.8-10.24-25.6-25.6-25.6-12.8 0-25.6 10.24-25.6 25.6l0 245.76c0 12.8 10.24 25.6 25.6 25.6 12.8 0 25.6-10.24 25.6-25.6l271.36 0c0 12.8 10.24 25.6 25.6 25.6 12.8 0 25.6-10.24 25.6-25.6l0-148.48C696.32 368.64 686.08 355.84 673.28 355.84zM424.96 430.08l171.52 0c12.8 0 25.6-10.24 25.6-25.6 0-12.8-10.24-25.6-25.6-25.6l-171.52 0c-12.8 0-25.6 10.24-25.6 25.6C401.92 419.84 412.16 430.08 424.96 430.08z" fill="#EF8E00" p-id="3646"></path></svg>