<?xml version="1.0" standalone="no"?><!DOCTYPE svg PUBLIC "-//W3C//DTD SVG 1.1//EN" "http://www.w3.org/Graphics/SVG/1.1/DTD/svg11.dtd"><svg t="1716969054349" class="icon" viewBox="0 0 1024 1024" version="1.1" xmlns="http://www.w3.org/2000/svg" p-id="6887" xmlns:xlink="http://www.w3.org/1999/xlink" width="200" height="200"><path d="M259.411591 691.598672a358.151647 358.151647 0 1 1 609.642073-254.000102 360.556753 360.556753 0 0 1-104.700537 254.000102l-252.379269 253.97396z" fill="#FC745F" p-id="6888"></path><path d="M509.594894 260.692571a8.862293 8.862293 0 1 0-17.724585 0v97.563645a15.894613 15.894613 0 0 1-17.750728 17.724586 16.18218 16.18218 0 0 1-17.724585-17.724586v-101.955578l-17.724585-4.444217-17.724585 4.444217v101.955578a15.894613 15.894613 0 0 1-17.750728 17.724586 16.18218 16.18218 0 0 1-17.724585-17.724586V260.692571a8.862293 8.862293 0 1 0-17.724585 0v8.888435a863.877457 863.877457 0 0 0-17.724585 124.150523c0 14.273781 23.52821 43.030483 65.643707 51.082359l-12.02553 156.305744a35.475313 35.475313 0 1 0 70.584631 5.463774 35.945877 35.945877 0 0 0-0.418279-5.463774l-12.02553-156.331886c41.488078-7.842737 65.669849-36.102732 65.669849-51.082359a883.615011 883.615011 0 0 0-17.724585-124.150524v-8.888435z m159.599694 150.789686a219.59663 219.59663 0 0 0-55.709574-151.024968 17.724585 17.724585 0 0 0-32.939494 9.123717v337.028542h1.516262a26.61302 26.61302 0 1 0 50.167373 0h1.516262v-88.701353s35.475313-3.137095 35.475313-35.475313V411.482257z m0 0" fill="#FFFFFF" p-id="6889"></path></svg>